{
.appVersion = "1075";
DisplayStrings = (
A,
F,
P,
w,
NN,
L,
H,
MM,
RR,
K,
M
);
date = "2015-11-26 23:40:02 +0000";
familyName = "new Font";
fontMaster = (
{
ascender = 850;
capHeight = 1000;
descender = -250;
id = "9C958F37-6569-4215-B1A1-286FA8FB18A6";
xHeight = 600;
}
);
glyphs = (
{
glyphname = A;
lastChange = "2018-04-12 13:58:54 +0000";
layers = (
{
guideLines = (
{
position = "{1660, 850}";
},
{
position = "{1545, 0}";
}
);
layerId = "9C958F37-6569-4215-B1A1-286FA8FB18A6";
paths = (
{
closed = 1;
nodes = (
"2212 0 LINE",
"2212 850 LINE",
"2298 850 LINE",
"2298 0 LINE"
);
},
{
closed = 1;
nodes = (
"1391 0 LINE",
"1035 850 LINE",
"1128 850 LINE",
"1483 0 LINE"
);
},
{
closed = 1;
nodes = (
"1037 850 LINE",
"1130 850 LINE",
"774 0 LINE",
"682 0 LINE"
);
},
{
closed = 1;
nodes = (
"1274 377 LINE",
"1274 291 LINE",
"868 291 LINE",
"868 377 LINE"
);
},
{
closed = 1;
nodes = (
"-447 594 LINE",
"-553 594 LINE",
"-798 0 LINE",
"-706 0 LINE",
"-500 500 LINE",
"-291 0 LINE",
"-199 0 LINE"
);
}
);
width = 2298;
}
);
unicode = 0041;
},
{
glyphname = E;
lastChange = "2016-08-26 16:37:19 +0000";
layers = (
{
layerId = "9C958F37-6569-4215-B1A1-286FA8FB18A6";
paths = (
{
closed = 1;
nodes = (
"86 0 LINE",
"0 0 LINE",
"0 850 LINE",
"86 850 LINE"
);
},
{
closed = 1;
nodes = (
"593 850 LINE",
"593 764 LINE",
"1 764 LINE",
"1 850 LINE"
);
},
{
closed = 1;
nodes = (
"407 484 LINE",
"407 398 LINE",
"1 398 LINE",
"1 484 LINE"
);
},
{
closed = 1;
nodes = (
"596 85 LINE",
"596 -1 LINE",
"4 -1 LINE",
"4 85 LINE"
);
}
);
width = 600;
}
);
unicode = 0045;
},
{
glyphname = F;
lastChange = "2016-08-26 16:30:58 +0000";
layers = (
{
layerId = "9C958F37-6569-4215-B1A1-286FA8FB18A6";
paths = (
{
closed = 1;
nodes = (
"86 0 LINE",
"0 0 LINE",
"0 850 LINE",
"86 850 LINE"
);
},
{
closed = 1;
nodes = (
"593 850 LINE",
"593 764 LINE",
"1 764 LINE",
"1 850 LINE"
);
},
{
closed = 1;
nodes = (
"975 0 OFFCURVE",
"842 134 OFFCURVE",
"842 297 CURVE SMOOTH",
"842 462 OFFCURVE",
"975 595 OFFCURVE",
"1140 595 CURVE SMOOTH",
"1304 595 OFFCURVE",
"1437 462 OFFCURVE",
"1437 297 CURVE SMOOTH",
"1437 134 OFFCURVE",
"1304 0 OFFCURVE",
"1140 0 CURVE SMOOTH"
);
},
{
closed = 1;
nodes = (
"1023 509 OFFCURVE",
"928 414 OFFCURVE",
"928 297 CURVE SMOOTH",
"928 181 OFFCURVE",
"1023 87 OFFCURVE",
"1140 87 CURVE SMOOTH",
"1255 87 OFFCURVE",
"1350 181 OFFCURVE",
"1350 297 CURVE SMOOTH",
"1350 414 OFFCURVE",
"1255 509 OFFCURVE",
"1140 509 CURVE SMOOTH"
);
},
{
closed = 1;
nodes = (
"1350 0 LINE",
"1350 850 LINE",
"1437 850 LINE",
"1437 0 LINE"
);
},
{
closed = 1;
nodes = (
"407 484 LINE",
"407 398 LINE",
"1 398 LINE",
"1 484 LINE"
);
}
);
width = 600;
}
);
unicode = 0046;
},
{
glyphname = H;
lastChange = "2018-04-03 14:22:09 +0000";
layers = (
{
layerId = "9C958F37-6569-4215-B1A1-286FA8FB18A6";
paths = (
{
closed = 1;
nodes = (
"89 0 LINE",
"3 0 LINE",
"3 850 LINE",
"89 850 LINE"
);
},
{
closed = 1;
nodes = (
"596 484 LINE",
"596 398 LINE",
"4 398 LINE",
"4 484 LINE"
);
},
{
closed = 1;
nodes = (
"596 0 LINE",
"510 0 LINE",
"510 850 LINE",
"596 850 LINE"
);
}
);
width = 600;
}
);
unicode = 0048;
},
{
glyphname = I;
lastChange = "2016-08-26 16:24:11 +0000";
layers = (
{
layerId = "9C958F37-6569-4215-B1A1-286FA8FB18A6";
paths = (
{
closed = 1;
nodes = (
"241 0 LINE",
"241 850 LINE",
"327 850 LINE",
"327 0 LINE"
);
}
);
width = 600;
}
);
unicode = 0049;
},
{
glyphname = K;
lastChange = "2018-04-18 16:54:27 +0000";
layers = (
{
layerId = "9C958F37-6569-4215-B1A1-286FA8FB18A6";
paths = (
{
closed = 1;
nodes = (
"35 0 LINE",
"35 850 LINE",
"121 850 LINE",
"121 0 LINE"
);
},
{
closed = 1;
nodes = (
"125 399 LINE",
"235 399 LINE",
"556 816 LINE",
"451 816 LINE"
);
},
{
closed = 1;
nodes = (
"125 399 LINE",
"454 0 LINE",
"564 0 LINE",
"236 399 LINE"
);
}
);
width = 600;
}
);
unicode = 004B;
},
{
glyphname = L;
lastChange = "2016-08-26 16:22:20 +0000";
layers = (
{
layerId = "9C958F37-6569-4215-B1A1-286FA8FB18A6";
paths = (
{
closed = 1;
nodes = (
"0 0 LINE",
"0 850 LINE",
"86 850 LINE",
"86 0 LINE"
);
},
{
closed = 1;
nodes = (
"1 86 LINE",
"593 86 LINE",
"593 0 LINE",
"1 0 LINE"
);
}
);
width = 593;
}
);
unicode = 004C;
},
{
glyphname = M;
lastChange = "2018-04-03 14:34:54 +0000";
layers = (
{
layerId = "9C958F37-6569-4215-B1A1-286FA8FB18A6";
paths = (
{
closed = 1;
nodes = (
"356 0 LINE",
"0 850 LINE",
"93 850 LINE",
"448 0 LINE"
);
},
{
closed = 0;
nodes = (
"0 850 LINE",
"93 850 LINE"
);
},
{
closed = 1;
nodes = (
"0 0 LINE",
"0 850 LINE",
"93 850 LINE",
"93 0 LINE"
);
},
{
closed = 1;
nodes = (
"711 0 LINE",
"711 850 LINE",
"804 850 LINE",
"804 0 LINE"
);
},
{
closed = 1;
nodes = (
"711 850 LINE",
"804 850 LINE",
"448 0 LINE",
"356 0 LINE"
);
}
);
width = 1004;
}
);
unicode = 004D;
},
{
glyphname = N;
lastChange = "2018-04-03 14:47:42 +0000";
layers = (
{
layerId = "9C958F37-6569-4215-B1A1-286FA8FB18A6";
paths = (
{
closed = 1;
nodes = (
"441 0 LINE",
"85 850 LINE",
"178 850 LINE",
"533 0 LINE"
);
},
{
closed = 0;
nodes = (
"85 850 LINE",
"178 850 LINE"
);
},
{
closed = 1;
nodes = (
"85 0 LINE",
"85 850 LINE",
"178 850 LINE",
"178 0 LINE"
);
},
{
closed = 1;
nodes = (
"441 0 LINE",
"441 850 LINE",
"534 850 LINE",
"534 0 LINE"
);
}
);
width = 600;
}
);
unicode = 004E;
},
{
glyphname = O;
lastChange = "2016-11-27 22:38:15 +0000";
layers = (
{
layerId = "9C958F37-6569-4215-B1A1-286FA8FB18A6";
paths = (
{
closed = 1;
nodes = (
"190 -1 OFFCURVE",
"0 192 OFFCURVE",
"0 425 CURVE SMOOTH",
"0 661 OFFCURVE",
"190 850 OFFCURVE",
"423 850 CURVE SMOOTH",
"655 850 OFFCURVE",
"846 661 OFFCURVE",
"846 425 CURVE SMOOTH",
"846 192 OFFCURVE",
"655 1 OFFCURVE",
"423 0 CURVE SMOOTH"
);
},
{
closed = 1;
nodes = (
"258 761 OFFCURVE",
"86 592 OFFCURVE",
"86 425 CURVE SMOOTH",
"86 261 OFFCURVE",
"258 88 OFFCURVE",
"423 88 CURVE SMOOTH",
"587 88 OFFCURVE",
"758 261 OFFCURVE",
"758 425 CURVE SMOOTH",
"758 592 OFFCURVE",
"587 761 OFFCURVE",
"423 761 CURVE SMOOTH"
);
},
{
closed = 1;
nodes = (
"-558 389 LINE",
"-472 389 LINE",
"-472 273 OFFCURVE",
"-472 157 OFFCURVE",
"-472 41 CURVE",
"-558 41 LINE"
);
}
);
width = 846;
}
);
unicode = 004F;
},
{
glyphname = P;
lastChange = "2016-08-26 17:05:41 +0000";
layers = (
{
guideLines = (
{
position = "{701, 850}";
},
{
position = "{1023, 0}";
},
{
position = "{770, 400}";
}
);
layerId = "9C958F37-6569-4215-B1A1-286FA8FB18A6";
paths = (
{
closed = 1;
nodes = (
"86 0 LINE",
"0 0 LINE",
"0 850 LINE",
"86 850 LINE"
);
},
{
closed = 1;
nodes = (
"134 250 OFFCURVE",
"0 385 OFFCURVE",
"0 549 CURVE SMOOTH",
"0 716 OFFCURVE",
"134 850 OFFCURVE",
"299 850 CURVE SMOOTH",
"464 850 OFFCURVE",
"598 716 OFFCURVE",
"598 549 CURVE SMOOTH",
"598 385 OFFCURVE",
"464 250 OFFCURVE",
"299 250 CURVE SMOOTH"
);
},
{
closed = 1;
nodes = (
"182 762 OFFCURVE",
"86 667 OFFCURVE",
"86 549 CURVE SMOOTH",
"86 433 OFFCURVE",
"182 337 OFFCURVE",
"299 337 CURVE SMOOTH",
"415 337 OFFCURVE",
"512 433 OFFCURVE",
"512 549 CURVE SMOOTH",
"512 667 OFFCURVE",
"415 762 OFFCURVE",
"299 762 CURVE SMOOTH"
);
},
{
closed = 1;
nodes = (
"-543 0 LINE",
"-629 0 LINE",
"-629 850 LINE",
"-543 850 LINE"
);
},
{
closed = 1;
nodes = (
"-36 850 LINE",
"-36 764 LINE",
"-628 764 LINE",
"-628 850 LINE"
);
},
{
closed = 1;
nodes = (
"-222 484 LINE",
"-222 398 LINE",
"-628 398 LINE",
"-628 484 LINE"
);
}
);
width = 600;
}
);
unicode = 0050;
},
{
glyphname = Q;
lastChange = "2016-11-27 22:45:29 +0000";
layers = (
{
guideLines = (
{
position = "{1071, 425}";
},
{
position = "{949, 29}";
}
);
layerId = "9C958F37-6569-4215-B1A1-286FA8FB18A6";
paths = (
{
closed = 1;
nodes = (
"190 -1 OFFCURVE",
"0 192 OFFCURVE",
"0 425 CURVE SMOOTH",
"0 661 OFFCURVE",
"190 850 OFFCURVE",
"423 850 CURVE SMOOTH",
"655 850 OFFCURVE",
"846 661 OFFCURVE",
"846 425 CURVE SMOOTH",
"846 192 OFFCURVE",
"655 1 OFFCURVE",
"423 0 CURVE SMOOTH"
);
},
{
closed = 1;
nodes = (
"258 761 OFFCURVE",
"86 592 OFFCURVE",
"86 425 CURVE SMOOTH",
"86 261 OFFCURVE",
"258 88 OFFCURVE",
"423 88 CURVE SMOOTH",
"587 88 OFFCURVE",
"758 261 OFFCURVE",
"758 425 CURVE SMOOTH",
"758 592 OFFCURVE",
"587 761 OFFCURVE",
"423 761 CURVE SMOOTH"
);
},
{
closed = 1;
nodes = (
"807 0 LINE",
"708 0 LINE",
"436 425 LINE",
"535 425 LINE"
);
}
);
width = 846;
}
);
unicode = 0051;
},
{
glyphname = R;
lastChange = "2018-04-03 18:01:44 +0000";
layers = (
{
layerId = "9C958F37-6569-4215-B1A1-286FA8FB18A6";
paths = (
{
closed = 1;
nodes = (
"86 0 LINE",
"0 0 LINE",
"0 850 LINE",
"86 850 LINE"
);
},
{
closed = 1;
nodes = (
"299 850 LINE",
"299 764 LINE",
"1 764 LINE",
"1 850 LINE"
);
},
{
closed = 1;
nodes = (
"300 336 LINE",
"300 250 LINE",
"0 250 LINE",
"0 336 LINE"
);
},
{
closed = 1;
nodes = (
"600 0 LINE",
"501 0 LINE",
"229 425 LINE",
"328 425 LINE"
);
},
{
closed = 1;
nodes = (
"-88 337 OFFCURVE",
"299 337 CURVE SMOOTH",
"415 337 OFFCURVE",
"512 433 OFFCURVE",
"512 549 CURVE SMOOTH",
"512 667 OFFCURVE",
"415 762 OFFCURVE",
"299 762 CURVE",
"299 850 LINE",
"464 850 OFFCURVE",
"598 716 OFFCURVE",
"598 549 CURVE SMOOTH",
"598 385 OFFCURVE",
"464 250 OFFCURVE",
"299 250 CURVE SMOOTH",
"13 250 OFFCURVE"
);
}
);
width = 800;
}
);
unicode = 0052;
},
{
glyphname = T;
lastChange = "2016-08-26 16:26:57 +0000";
layers = (
{
layerId = "9C958F37-6569-4215-B1A1-286FA8FB18A6";
paths = (
{
closed = 1;
nodes = (
"340 0 LINE",
"254 0 LINE",
"254 850 LINE",
"340 850 LINE"
);
},
{
closed = 1;
nodes = (
"593 850 LINE",
"593 764 LINE",
"1 764 LINE",
"1 850 LINE"
);
}
);
width = 600;
}
);
unicode = 0054;
},
{
glyphname = a;
lastChange = "2017-02-19 00:30:44 +0000";
layers = (
{
layerId = "9C958F37-6569-4215-B1A1-286FA8FB18A6";
paths = (
{
closed = 1;
nodes = (
"137 1 OFFCURVE",
"4 133 OFFCURVE",
"4 296 CURVE SMOOTH",
"4 459 OFFCURVE",
"137 591 OFFCURVE",
"299 591 CURVE SMOOTH",
"462 591 OFFCURVE",
"595 459 OFFCURVE",
"595 296 CURVE SMOOTH",
"595 133 OFFCURVE",
"462 1 OFFCURVE",
"299 1 CURVE SMOOTH"
);
},
{
closed = 1;
nodes = (
"184 506 OFFCURVE",
"90 412 OFFCURVE",
"90 296 CURVE SMOOTH",
"90 180 OFFCURVE",
"184 86 OFFCURVE",
"299 86 CURVE SMOOTH",
"415 86 OFFCURVE",
"509 180 OFFCURVE",
"509 296 CURVE SMOOTH",
"509 412 OFFCURVE",
"415 506 OFFCURVE",
"299 506 CURVE SMOOTH"
);
},
{
closed = 1;
nodes = (
"509 1 LINE",
"509 596 LINE",
"595 596 LINE",
"595 398 OFFCURVE",
"595 199 OFFCURVE",
"595 1 CURVE"
);
}
);
width = 600;
}
);
unicode = 0061;
},
{
glyphname = b;
lastChange = "2015-11-26 23:55:34 +0000";
layers = (
{
layerId = "9C958F37-6569-4215-B1A1-286FA8FB18A6";
paths = (
{
closed = 1;
nodes = (
"137 0 OFFCURVE",
"4 132 OFFCURVE",
"4 295 CURVE SMOOTH",
"4 457 OFFCURVE",
"137 590 OFFCURVE",
"299 590 CURVE SMOOTH",
"462 590 OFFCURVE",
"594 457 OFFCURVE",
"594 295 CURVE SMOOTH",
"594 132 OFFCURVE",
"462 0 OFFCURVE",
"299 0 CURVE SMOOTH"
);
},
{
closed = 1;
nodes = (
"184 504 OFFCURVE",
"90 410 OFFCURVE",
"90 295 CURVE SMOOTH",
"90 179 OFFCURVE",
"184 85 OFFCURVE",
"299 85 CURVE SMOOTH",
"414 85 OFFCURVE",
"508 179 OFFCURVE",
"508 295 CURVE SMOOTH",
"508 410 OFFCURVE",
"414 504 OFFCURVE",
"299 504 CURVE SMOOTH"
);
},
{
closed = 1;
nodes = (
"4 0 LINE",
"4 842 LINE",
"90 842 LINE",
"90 0 LINE"
);
}
);
width = 600;
}
);
unicode = 0062;
},
{
glyphname = c;
lastChange = "2015-11-27 00:57:13 +0000";
layers = (
{
layerId = "9C958F37-6569-4215-B1A1-286FA8FB18A6";
paths = (
{
closed = 1;
nodes = (
"170 0 OFFCURVE",
"35 135 OFFCURVE",
"35 300 CURVE SMOOTH",
"35 465 OFFCURVE",
"170 600 OFFCURVE",
"335 600 CURVE SMOOTH",
"415 600 OFFCURVE",
"490 569 OFFCURVE",
"547 513 CURVE",
"486 451 LINE",
"446 492 OFFCURVE",
"392 513 OFFCURVE",
"335 513 CURVE SMOOTH",
"218 513 OFFCURVE",
"122 418 OFFCURVE",
"122 300 CURVE SMOOTH",
"122 182 OFFCURVE",
"218 87 OFFCURVE",
"335 87 CURVE SMOOTH",
"393 87 OFFCURVE",
"446 109 OFFCURVE",
"486 149 CURVE",
"548 88 LINE",
"492 31 OFFCURVE",
"415 0 OFFCURVE",
"335 0 CURVE SMOOTH"
);
}
);
width = 600;
}
);
unicode = 0063;
},
{
glyphname = d;
lastChange = "2015-11-27 01:13:26 +0000";
layers = (
{
layerId = "9C958F37-6569-4215-B1A1-286FA8FB18A6";
paths = (
{
closed = 1;
nodes = (
"133 0 OFFCURVE",
"0 134 OFFCURVE",
"0 297 CURVE SMOOTH",
"0 462 OFFCURVE",
"133 595 OFFCURVE",
"298 595 CURVE SMOOTH",
"462 595 OFFCURVE",
"595 462 OFFCURVE",
"595 297 CURVE SMOOTH",
"595 134 OFFCURVE",
"462 0 OFFCURVE",
"298 0 CURVE SMOOTH"
);
},
{
closed = 1;
nodes = (
"181 509 OFFCURVE",
"86 414 OFFCURVE",
"86 297 CURVE SMOOTH",
"86 181 OFFCURVE",
"181 87 OFFCURVE",
"298 87 CURVE SMOOTH",
"413 87 OFFCURVE",
"508 181 OFFCURVE",
"508 297 CURVE SMOOTH",
"508 414 OFFCURVE",
"413 509 OFFCURVE",
"298 509 CURVE SMOOTH"
);
},
{
closed = 1;
nodes = (
"508 0 LINE",
"508 850 LINE",
"595 850 LINE",
"595 0 LINE"
);
}
);
width = 600;
}
);
unicode = 0064;
},
{
glyphname = e;
lastChange = "2015-11-27 01:29:31 +0000";
layers = (
{
layerId = "9C958F37-6569-4215-B1A1-286FA8FB18A6";
paths = (
{
closed = 1;
nodes = (
"197 87 OFFCURVE",
"111 160 OFFCURVE",
"91 256 CURVE",
"600 256 LINE",
"600 300 LINE SMOOTH",
"600 466 OFFCURVE",
"465 600 OFFCURVE",
"300 600 CURVE SMOOTH",
"135 600 OFFCURVE",
"0 466 OFFCURVE",
"0 300 CURVE SMOOTH",
"0 135 OFFCURVE",
"135 0 OFFCURVE",
"300 0 CURVE SMOOTH",
"417 0 OFFCURVE",
"535 80 OFFCURVE",
"571 185 CURVE",
"476 185 LINE",
"442 130 OFFCURVE",
"368 87 OFFCURVE",
"300 87 CURVE SMOOTH"
);
},
{
closed = 1;
nodes = (
"402 514 OFFCURVE",
"488 440 OFFCURVE",
"508 343 CURVE",
"91 343 LINE",
"111 440 OFFCURVE",
"197 514 OFFCURVE",
"300 514 CURVE SMOOTH"
);
}
);
width = 600;
}
);
unicode = 0065;
},
{
glyphname = f;
lastChange = "2015-12-22 00:36:03 +0000";
layers = (
{
layerId = "9C958F37-6569-4215-B1A1-286FA8FB18A6";
paths = (
{
closed = 1;
nodes = (
"101 654 LINE",
"101 754 OFFCURVE",
"182 835 OFFCURVE",
"282 835 CURVE",
"282 750 LINE",
"228 750 OFFCURVE",
"185 707 OFFCURVE",
"185 654 CURVE"
);
},
{
closed = 1;
nodes = (
"101 0 LINE",
"101 660 LINE",
"185 660 LINE",
"185 0 LINE"
);
},
{
closed = 1;
nodes = (
"3 515 LINE",
"3 600 LINE",
"292 600 LINE",
"292 515 LINE"
);
}
);
width = 292;
}
);
unicode = 0066;
},
{
glyphname = g;
lastChange = "2015-12-21 23:26:37 +0000";
layers = (
{
layerId = "9C958F37-6569-4215-B1A1-286FA8FB18A6";
paths = (
{
closed = 0;
nodes = (
"47 44 LINE"
);
},
{
closed = 1;
nodes = (
"137 -253 OFFCURVE",
"3 -119 OFFCURVE",
"3 44 CURVE",
"90 44 LINE",
"90 -72 OFFCURVE",
"184 -167 OFFCURVE",
"301 -167 CURVE SMOOTH",
"417 -167 OFFCURVE",
"511 -72 OFFCURVE",
"511 44 CURVE",
"598 44 LINE",
"598 -119 OFFCURVE",
"464 -253 OFFCURVE",
"301 -253 CURVE SMOOTH"
);
},
{
closed = 1;
nodes = (
"137 6 OFFCURVE",
"3 139 OFFCURVE",
"3 303 CURVE SMOOTH",
"3 466 OFFCURVE",
"137 600 OFFCURVE",
"301 600 CURVE SMOOTH",
"464 600 OFFCURVE",
"598 466 OFFCURVE",
"598 303 CURVE SMOOTH",
"598 139 OFFCURVE",
"464 6 OFFCURVE",
"301 6 CURVE SMOOTH"
);
},
{
closed = 1;
nodes = (
"184 513 OFFCURVE",
"90 419 OFFCURVE",
"90 303 CURVE SMOOTH",
"90 186 OFFCURVE",
"184 92 OFFCURVE",
"301 92 CURVE SMOOTH",
"417 92 OFFCURVE",
"511 186 OFFCURVE",
"511 303 CURVE SMOOTH",
"511 419 OFFCURVE",
"417 513 OFFCURVE",
"301 513 CURVE SMOOTH"
);
},
{
closed = 1;
nodes = (
"511 44 LINE",
"511 600 LINE",
"598 600 LINE",
"598 44 LINE"
);
}
);
width = 600;
}
);
unicode = 0067;
},
{
glyphname = h;
lastChange = "2015-11-27 01:36:34 +0000";
layers = (
{
layerId = "9C958F37-6569-4215-B1A1-286FA8FB18A6";
paths = (
{
closed = 1;
nodes = (
"582 475 OFFCURVE",
"455 595 OFFCURVE",
"301 595 CURVE SMOOTH",
"219 595 OFFCURVE",
"146 562 OFFCURVE",
"93 508 CURVE",
"93 850 LINE",
"8 850 LINE",
"8 0 LINE",
"93 0 LINE",
"93 302 LINE SMOOTH",
"93 417 OFFCURVE",
"186 510 OFFCURVE",
"301 510 CURVE SMOOTH",
"415 510 OFFCURVE",
"509 417 OFFCURVE",
"509 302 CURVE SMOOTH",
"509 0 LINE",
"594 0 LINE",
"594 323 LINE",
"593 323 LINE"
);
}
);
width = 600;
}
);
unicode = 0068;
},
{
glyphname = i;
lastChange = "2015-11-27 07:04:29 +0000";
layers = (
{
layerId = "9C958F37-6569-4215-B1A1-286FA8FB18A6";
paths = (
{
closed = 1;
nodes = (
"280 772 LINE",
"280 850 LINE",
"365 850 LINE",
"365 772 LINE"
);
},
{
closed = 1;
nodes = (
"280 0 LINE",
"280 600 LINE",
"365 600 LINE",
"365 0 LINE"
);
}
);
width = 600;
}
);
unicode = 0069;
},
{
glyphname = j;
lastChange = "2015-11-27 07:09:50 +0000";
layers = (
{
layerId = "9C958F37-6569-4215-B1A1-286FA8FB18A6";
paths = (
{
closed = 1;
nodes = (
"118 -164 LINE",
"235 -164 OFFCURVE",
"328 -70 OFFCURVE",
"328 45 CURVE",
"414 45 LINE",
"414 -117 OFFCURVE",
"282 -250 OFFCURVE",
"118 -250 CURVE"
);
},
{
closed = 1;
nodes = (
"328 770 LINE",
"328 850 LINE",
"414 850 LINE",
"414 770 LINE"
);
},
{
closed = 1;
nodes = (
"328 38 LINE",
"328 600 LINE",
"414 600 LINE",
"414 38 LINE"
);
}
);
width = 600;
}
);
unicode = 006A;
},
{
glyphname = k;
lastChange = "2018-04-17 18:22:27 +0000";
layers = (
{
layerId = "9C958F37-6569-4215-B1A1-286FA8FB18A6";
paths = (
{
closed = 1;
nodes = (
"35 0 LINE",
"35 850 LINE",
"121 850 LINE",
"121 0 LINE"
);
},
{
closed = 1;
nodes = (
"125 303 LINE",
"230 303 LINE",
"489 600 LINE",
"384 600 LINE"
);
},
{
closed = 1;
nodes = (
"125 303 LINE",
"388 0 LINE",
"494 0 LINE",
"231 303 LINE"
);
}
);
width = 600;
}
);
unicode = 006B;
},
{
glyphname = l;
lastChange = "2015-11-27 06:36:10 +0000";
layers = (
{
layerId = "9C958F37-6569-4215-B1A1-286FA8FB18A6";
paths = (
{
closed = 1;
nodes = (
"263 0 LINE",
"263 850 LINE",
"349 850 LINE",
"349 0 LINE"
);
}
);
width = 600;
}
);
unicode = 006C;
},
{
glyphname = m;
lastChange = "2015-12-11 06:04:12 +0000";
layers = (
{
layerId = "9C958F37-6569-4215-B1A1-286FA8FB18A6";
paths = (
{
closed = 1;
nodes = (
"504 305 LINE",
"504 420 OFFCURVE",
"410 514 OFFCURVE",
"295 514 CURVE SMOOTH",
"180 514 OFFCURVE",
"86 420 OFFCURVE",
"86 305 CURVE",
"0 305 LINE",
"0 467 OFFCURVE",
"133 599 OFFCURVE",
"295 599 CURVE SMOOTH",
"457 599 OFFCURVE",
"589 467 OFFCURVE",
"589 305 CURVE"
);
},
{
closed = 1;
nodes = (
"0 0 LINE",
"0 600 LINE",
"86 600 LINE",
"86 0 LINE"
);
},
{
closed = 1;
nodes = (
"504 0 LINE",
"504 326 LINE",
"589 326 LINE",
"589 0 LINE"
);
},
{
closed = 1;
nodes = (
"1008 305 LINE",
"1008 420 OFFCURVE",
"914 514 OFFCURVE",
"799 514 CURVE SMOOTH",
"683 514 OFFCURVE",
"589 420 OFFCURVE",
"589 305 CURVE",
"504 305 LINE",
"504 467 OFFCURVE",
"636 599 OFFCURVE",
"799 599 CURVE SMOOTH",
"961 599 OFFCURVE",
"1093 467 OFFCURVE",
"1093 305 CURVE"
);
},
{
closed = 1;
nodes = (
"1008 0 LINE",
"1008 306 LINE",
"1093 306 LINE",
"1093 0 LINE"
);
}
);
width = 1093;
}
);
unicode = 006D;
},
{
glyphname = n;
lastChange = "2015-11-27 06:24:54 +0000";
layers = (
{
layerId = "9C958F37-6569-4215-B1A1-286FA8FB18A6";
paths = (
{
closed = 1;
nodes = (
"582 470 OFFCURVE",
"457 594 OFFCURVE",
"299 594 CURVE SMOOTH",
"218 594 OFFCURVE",
"143 560 OFFCURVE",
"90 506 CURVE",
"90 600 LINE",
"5 600 LINE",
"5 0 LINE",
"90 0 LINE",
"90 299 LINE SMOOTH",
"90 415 OFFCURVE",
"184 508 OFFCURVE",
"299 508 CURVE SMOOTH",
"415 508 OFFCURVE",
"509 415 OFFCURVE",
"509 299 CURVE SMOOTH",
"509 0 LINE",
"594 0 LINE",
"594 320 LINE"
);
}
);
width = 600;
}
);
unicode = 006E;
},
{
glyphname = o;
lastChange = "2015-11-27 06:27:09 +0000";
layers = (
{
layerId = "9C958F37-6569-4215-B1A1-286FA8FB18A6";
paths = (
{
closed = 1;
nodes = (
"131 0 OFFCURVE",
"-3 135 OFFCURVE",
"-3 299 CURVE SMOOTH",
"-3 466 OFFCURVE",
"131 600 OFFCURVE",
"296 600 CURVE SMOOTH",
"461 600 OFFCURVE",
"595 466 OFFCURVE",
"595 299 CURVE SMOOTH",
"595 135 OFFCURVE",
"461 0 OFFCURVE",
"296 0 CURVE SMOOTH"
);
},
{
closed = 1;
nodes = (
"179 512 OFFCURVE",
"83 417 OFFCURVE",
"83 299 CURVE SMOOTH",
"83 183 OFFCURVE",
"179 87 OFFCURVE",
"296 87 CURVE SMOOTH",
"412 87 OFFCURVE",
"509 183 OFFCURVE",
"509 299 CURVE SMOOTH",
"509 417 OFFCURVE",
"412 512 OFFCURVE",
"296 512 CURVE SMOOTH"
);
}
);
width = 600;
}
);
unicode = 006F;
},
{
glyphname = p;
lastChange = "2015-11-27 06:39:01 +0000";
layers = (
{
layerId = "9C958F37-6569-4215-B1A1-286FA8FB18A6";
paths = (
{
closed = 1;
nodes = (
"135 8 OFFCURVE",
"2 140 OFFCURVE",
"2 304 CURVE SMOOTH",
"2 467 OFFCURVE",
"135 600 OFFCURVE",
"298 600 CURVE SMOOTH",
"461 600 OFFCURVE",
"593 467 OFFCURVE",
"593 304 CURVE SMOOTH",
"593 140 OFFCURVE",
"461 8 OFFCURVE",
"298 8 CURVE SMOOTH"
);
},
{
closed = 1;
nodes = (
"182 514 OFFCURVE",
"87 420 OFFCURVE",
"87 304 CURVE SMOOTH",
"87 188 OFFCURVE",
"182 93 OFFCURVE",
"298 93 CURVE SMOOTH",
"414 93 OFFCURVE",
"508 188 OFFCURVE",
"508 304 CURVE SMOOTH",
"508 420 OFFCURVE",
"414 514 OFFCURVE",
"298 514 CURVE SMOOTH"
);
},
{
closed = 1;
nodes = (
"2 -250 LINE",
"2 600 LINE",
"87 600 LINE",
"87 -250 LINE"
);
}
);
width = 600;
}
);
unicode = 0070;
},
{
glyphname = q;
lastChange = "2015-11-27 07:16:17 +0000";
layers = (
{
layerId = "9C958F37-6569-4215-B1A1-286FA8FB18A6";
paths = (
{
closed = 1;
nodes = (
"134 8 OFFCURVE",
"2 140 OFFCURVE",
"2 304 CURVE SMOOTH",
"2 467 OFFCURVE",
"134 600 OFFCURVE",
"297 600 CURVE SMOOTH",
"460 600 OFFCURVE",
"593 467 OFFCURVE",
"593 304 CURVE SMOOTH",
"593 140 OFFCURVE",
"460 8 OFFCURVE",
"297 8 CURVE SMOOTH"
);
},
{
closed = 1;
nodes = (
"181 514 OFFCURVE",
"87 420 OFFCURVE",
"87 304 CURVE SMOOTH",
"87 188 OFFCURVE",
"181 93 OFFCURVE",
"297 93 CURVE SMOOTH",
"413 93 OFFCURVE",
"508 188 OFFCURVE",
"508 304 CURVE SMOOTH",
"508 420 OFFCURVE",
"413 514 OFFCURVE",
"297 514 CURVE SMOOTH"
);
},
{
closed = 1;
nodes = (
"508 600 LINE",
"593 600 LINE",
"593 -250 LINE",
"508 -250 LINE"
);
}
);
width = 600;
}
);
unicode = 0071;
},
{
glyphname = r;
lastChange = "2015-11-27 07:46:57 +0000";
layers = (
{
layerId = "9C958F37-6569-4215-B1A1-286FA8FB18A6";
paths = (
{
closed = 1;
nodes = (
"76 302 LINE",
"76 466 OFFCURVE",
"210 600 OFFCURVE",
"374 600 CURVE",
"374 513 LINE",
"257 513 OFFCURVE",
"162 418 OFFCURVE",
"162 302 CURVE"
);
},
{
closed = 1;
nodes = (
"76 0 LINE",
"76 600 LINE",
"162 600 LINE",
"162 0 LINE"
);
}
);
width = 600;
}
);
unicode = 0072;
},
{
glyphname = t;
lastChange = "2015-12-22 00:41:59 +0000";
layers = (
{
layerId = "9C958F37-6569-4215-B1A1-286FA8FB18A6";
paths = (
{
closed = 1;
nodes = (
"98 0 LINE",
"98 743 LINE",
"182 743 LINE",
"182 0 LINE"
);
},
{
closed = 1;
nodes = (
"0 515 LINE",
"0 600 LINE",
"289 600 LINE",
"289 515 LINE"
);
}
);
width = 289;
}
);
unicode = 0074;
},
{
glyphname = u;
lastChange = "2015-11-27 06:44:09 +0000";
layers = (
{
layerId = "9C958F37-6569-4215-B1A1-286FA8FB18A6";
paths = (
{
closed = 1;
nodes = (
"135 0 OFFCURVE",
"1 134 OFFCURVE",
"1 298 CURVE",
"87 298 LINE",
"87 181 OFFCURVE",
"182 86 OFFCURVE",
"299 86 CURVE SMOOTH",
"415 86 OFFCURVE",
"510 181 OFFCURVE",
"510 298 CURVE",
"597 298 LINE",
"597 134 OFFCURVE",
"463 0 OFFCURVE",
"299 0 CURVE SMOOTH"
);
},
{
closed = 1;
nodes = (
"510 0 LINE",
"510 600 LINE",
"597 600 LINE",
"597 0 LINE"
);
},
{
closed = 1;
nodes = (
"1 293 LINE",
"1 600 LINE",
"87 600 LINE",
"87 293 LINE"
);
}
);
width = 600;
}
);
unicode = 0075;
},
{
glyphname = v;
lastChange = "2015-12-22 00:55:41 +0000";
layers = (
{
layerId = "9C958F37-6569-4215-B1A1-286FA8FB18A6";
paths = (
{
closed = 1;
nodes = (
"307 94 LINE",
"516 594 LINE"
);
},
{
closed = 1;
nodes = (
"516 594 LINE",
"307 94 LINE",
"101 594 LINE",
"9 594 LINE",
"254 0 LINE",
"360 0 LINE",
"608 594 LINE"
);
}
);
width = 600;
}
);
unicode = 0076;
},
{
glyphname = w;
lastChange = "2016-02-18 00:09:57 +0000";
layers = (
{
layerId = "9C958F37-6569-4215-B1A1-286FA8FB18A6";
paths = (
{
closed = 1;
nodes = (
"298 94 LINE",
"507 594 LINE"
);
},
{
closed = 1;
nodes = (
"507 594 LINE",
"298 94 LINE",
"92 594 LINE",
"0 594 LINE",
"245 0 LINE",
"351 0 LINE",
"599 594 LINE"
);
},
{
closed = 1;
nodes = (
"555 94 LINE",
"764 594 LINE"
);
},
{
closed = 1;
nodes = (
"764 594 LINE",
"555 94 LINE",
"349 594 LINE",
"257 594 LINE",
"502 0 LINE",
"608 0 LINE",
"856 594 LINE"
);
}
);
width = 856;
}
);
unicode = 0077;
},
{
glyphname = x;
lastChange = "2016-08-26 16:12:25 +0000";
layers = (
{
guideLines = (
{
angle = 67.3372;
position = "{-1643, 12}";
},
{
position = "{-1289, 586}";
},
{
position = "{1520, 0}";
}
);
layerId = "9C958F37-6569-4215-B1A1-286FA8FB18A6";
paths = (
{
closed = 1;
nodes = (
"3494 578 LINE",
"3772 113 LINE",
"3248 245 LINE",
"3193 171 LINE",
"3816 14 LINE",
"3879 99 LINE",
"3549 652 LINE"
);
},
{
closed = 1;
nodes = (
"-1374 594 LINE",
"-1622 0 LINE",
"-1530 0 LINE",
"-1282 594 LINE"
);
},
{
closed = 1;
nodes = (
"-1303 0 LINE",
"-1203 0 LINE",
"-1557 594 LINE",
"-1657 594 LINE"
);
},
{
closed = 1;
nodes = (
"-2083 594 LINE",
"-2331 0 LINE",
"-2239 0 LINE",
"-1991 594 LINE"
);
},
{
closed = 1;
nodes = (
"-2012 0 LINE",
"-1912 0 LINE",
"-2266 594 LINE",
"-2366 594 LINE"
);
},
{
closed = 1;
nodes = (
"-11 324 LINE",
"-190 -9 LINE",
"-98 -9 LINE",
"48 246 LINE"
);
},
{
closed = 1;
nodes = (
"179 -9 LINE",
"279 -9 LINE",
"-75 585 LINE",
"-175 585 LINE"
);
},
{
closed = 1;
nodes = (
"102 286 LINE",
"253 585 LINE",
"161 585 LINE",
"43 364 LINE"
);
},
{
closed = 1;
nodes = (
"464 0 LINE",
"562 0 LINE",
"921 600 LINE",
"823 600 LINE"
);
},
{
closed = 1;
nodes = (
"466 600 LINE",
"848 0 LINE",
"947 0 LINE",
"565 600 LINE"
);
}
);
width = 600;
}
);
unicode = 0078;
},
{
glyphname = periodcentered;
lastChange = "2017-02-19 00:23:59 +0000";
layers = (
{
layerId = "9C958F37-6569-4215-B1A1-286FA8FB18A6";
paths = (
{
closed = 1;
nodes = (
"0 256 LINE",
"0 334 LINE",
"85 334 LINE",
"85 256 LINE"
);
}
);
width = 85;
}
);
unicode = 00B7;
},
{
glyphname = bullet;
lastChange = "2017-02-19 00:25:10 +0000";
layers = (
{
layerId = "9C958F37-6569-4215-B1A1-286FA8FB18A6";
paths = (
{
closed = 1;
nodes = (
"170 372 LINE",
"0 372 LINE",
"0 202 LINE",
"170 202 LINE"
);
}
);
width = 170;
}
);
unicode = 2022;
},
{
glyphname = colon;
lastChange = "2017-02-19 00:33:04 +0000";
layers = (
{
layerId = "9C958F37-6569-4215-B1A1-286FA8FB18A6";
paths = (
{
closed = 1;
nodes = (
"2 522 LINE",
"2 600 LINE",
"87 600 LINE",
"87 522 LINE"
);
},
{
closed = 1;
nodes = (
"0 0 LINE",
"0 78 LINE",
"85 78 LINE",
"85 0 LINE"
);
}
);
width = 87;
}
);
unicode = 003A;
},
{
glyphname = comma;
lastChange = "2017-02-19 00:23:30 +0000";
layers = (
{
layerId = "9C958F37-6569-4215-B1A1-286FA8FB18A6";
paths = (
{
closed = 1;
nodes = (
"0 -78 LINE",
"0 78 LINE",
"85 78 LINE",
"85 -78 LINE"
);
}
);
width = 85;
}
);
unicode = 002C;
},
{
glyphname = period;
lastChange = "2016-12-15 06:00:23 +0000";
layers = (
{
layerId = "9C958F37-6569-4215-B1A1-286FA8FB18A6";
paths = (
{
closed = 1;
nodes = (
"280 0 LINE",
"280 78 LINE",
"365 78 LINE",
"365 0 LINE"
);
}
);
width = 600;
}
);
unicode = 002E;
},
{
glyphname = semicolon;
lastChange = "2017-02-19 00:32:37 +0000";
layers = (
{
layerId = "9C958F37-6569-4215-B1A1-286FA8FB18A6";
paths = (
{
closed = 1;
nodes = (
"0 522 LINE",
"0 600 LINE",
"85 600 LINE",
"85 522 LINE"
);
},
{
closed = 1;
nodes = (
"0 -78 LINE",
"0 78 LINE",
"85 78 LINE",
"85 -78 LINE"
);
}
);
width = 85;
}
);
unicode = 003B;
},
{
glyphname = endash;
lastChange = "2017-02-19 00:49:42 +0000";
layers = (
{
layerId = "9C958F37-6569-4215-B1A1-286FA8FB18A6";
paths = (
{
closed = 1;
nodes = (
"0 272 LINE",
"580 272 LINE",
"580 358 LINE",
"0 358 LINE"
);
}
);
width = 580;
}
);
unicode = 2013;
},
{
glyphname = hyphen;
lastChange = "2017-02-19 00:45:53 +0000";
layers = (
{
layerId = "9C958F37-6569-4215-B1A1-286FA8FB18A6";
paths = (
{
closed = 1;
nodes = (
"0 272 LINE",
"0 357 LINE",
"289 357 LINE",
"289 272 LINE"
);
}
);
width = 289;
}
);
unicode = 002D;
},
